<svg xmlns="http://www.w3.org/2000/svg" viewBox="0 0 24 24" width="24" height="24" fill="none" stroke="#EAEAEA" stroke-width="1.75" stroke-linecap="round" stroke-linejoin="round">
  <defs>
    <filter id="glow-ops" x="-50%" y="-50%" width="200%" height="200%">
      <feGaussianBlur stdDeviation="1.5" result="blur"/>
      <feMerge>
        <feMergeNode in="blur"/>
        <feMergeNode in="SourceGraphic"/>
      </feMerge>
    </filter>
  </defs>
  <!-- Gears - Product Ops -->
  <!-- Large gear -->
  <circle cx="9" cy="9" r="5"/>
  <circle cx="9" cy="9" r="2"/>
  <!-- Gear teeth (large) -->
  <line x1="9" y1="2" x2="9" y2="4"/>
  <line x1="9" y1="14" x2="9" y2="16"/>
  <line x1="2" y1="9" x2="4" y2="9"/>
  <line x1="14" y1="9" x2="16" y2="9"/>
  <line x1="4.05" y1="4.05" x2="5.46" y2="5.46"/>
  <line x1="12.54" y1="12.54" x2="13.95" y2="13.95"/>
  <line x1="4.05" y1="13.95" x2="5.46" y2="12.54"/>
  <line x1="12.54" y1="5.46" x2="13.95" y2="4.05"/>
  <!-- Small gear -->
  <circle cx="17" cy="17" r="3.5"/>
  <circle cx="17" cy="17" r="1.5"/>
  <!-- Gear teeth (small) -->
  <line x1="17" y1="12" x2="17" y2="13.5"/>
  <line x1="17" y1="20.5" x2="17" y2="22"/>
  <line x1="12" y1="17" x2="13.5" y2="17"/>
  <line x1="20.5" y1="17" x2="22" y2="17"/>
</svg>
